<svg xmlns="http://www.w3.org/2000/svg" width="110" height="28" viewBox="0 0 110 28">
  <g id="ico_app_store" transform="translate(-8.85 -7.244)">
    <rect id="box" width="110" height="28" transform="translate(8.85 7.244)" fill="none"/>
    <g id="apple" transform="translate(10.649 8.696)">
      <path id="_Path_" data-name="&lt;Path&gt;" d="M26.662,20.6a5.7,5.7,0,0,1,2.716-4.785,5.838,5.838,0,0,0-4.6-2.487c-1.935-.2-3.811,1.158-4.8,1.158-1.005,0-2.524-1.138-4.159-1.1a6.125,6.125,0,0,0-5.155,3.144c-2.229,3.859-.566,9.53,1.569,12.649,1.068,1.527,2.317,3.233,3.95,3.173,1.6-.066,2.2-1.019,4.125-1.019,1.912,0,2.472,1.019,4.138.981,1.715-.028,2.8-1.534,3.827-3.076a12.633,12.633,0,0,0,1.75-3.564,5.511,5.511,0,0,1-3.364-5.07Z" transform="translate(-9.609 -7.256)" fill="#5f6368"/>
      <path id="_Path_2" data-name="&lt;Path&gt;" d="M22.521,11.87a5.615,5.615,0,0,0,1.284-4.023,5.713,5.713,0,0,0-3.7,1.913,5.343,5.343,0,0,0-1.318,3.874A4.724,4.724,0,0,0,22.521,11.87Z" transform="translate(-8.617 -7.847)" fill="#5f6368"/>
    </g>
    <g id="text" transform="translate(39.85 15.329)">
      <path id="p" d="M42.519,18.119H37.657l-1.167,3.447h-2.06L39.037,8.809h2.139l4.606,12.757h-2.1Zm-4.358-1.592h3.855l-1.9-5.6h-.053Z" transform="translate(-34.431 -8.598)" fill="#5f6368"/>
      <path id="p-2" data-name="p" d="M53.636,16.352c0,2.89-1.547,4.747-3.881,4.747a3.151,3.151,0,0,1-2.926-1.627h-.043v4.606h-1.91V11.7h1.848v1.547h.035A3.3,3.3,0,0,1,49.72,11.6C52.081,11.6,53.636,13.469,53.636,16.352Zm-1.963,0c0-1.884-.972-3.121-2.457-3.121-1.459,0-2.44,1.264-2.44,3.121,0,1.873.981,3.129,2.44,3.129,1.485,0,2.457-1.229,2.457-3.129Z" transform="translate(-32.358 -8.078)" fill="#5f6368"/>
      <path id="p-3" data-name="p" d="M62.167,16.352c0,2.89-1.547,4.747-3.881,4.747a3.151,3.151,0,0,1-2.926-1.627h-.043v4.606h-1.91V11.7h1.848v1.547h.035A3.3,3.3,0,0,1,58.252,11.6C60.612,11.6,62.167,13.469,62.167,16.352Zm-1.963,0c0-1.884-.972-3.121-2.457-3.121-1.459,0-2.44,1.264-2.44,3.121,0,1.873.981,3.129,2.44,3.129,1.485,0,2.457-1.229,2.457-3.129Z" transform="translate(-30.664 -8.078)" fill="#5f6368"/>
      <path id="p-4" data-name="p" d="M66.682,18.047c.142,1.264,1.37,2.1,3.05,2.1,1.609,0,2.768-.831,2.768-1.971,0-.991-.7-1.582-2.352-1.99l-1.653-.4c-2.343-.566-3.43-1.661-3.43-3.438,0-2.2,1.918-3.713,4.641-3.713,2.7,0,4.544,1.512,4.606,3.713H72.385c-.115-1.274-1.167-2.042-2.706-2.042s-2.589.778-2.589,1.91c0,.9.671,1.432,2.316,1.838l1.405.345c2.616.619,3.7,1.67,3.7,3.537,0,2.386-1.9,3.881-4.924,3.881-2.829,0-4.738-1.459-4.861-3.767Z" transform="translate(-28.419 -8.633)" fill="#5f6368"/>
      <path id="p-5" data-name="p" d="M76.849,9.854v2.2h1.768v1.512H76.849v5.127c0,.8.353,1.167,1.132,1.167a5.831,5.831,0,0,0,.627-.043v1.5a5.268,5.268,0,0,1-1.06.088c-1.884,0-2.618-.707-2.618-2.511v-5.33H73.578V12.055H74.93v-2.2Z" transform="translate(-26.654 -8.387)" fill="#5f6368"/>
      <path id="p-6" data-name="p" d="M78.64,16.333c0-2.913,1.723-4.743,4.411-4.743s4.411,1.831,4.411,4.743-1.706,4.742-4.411,4.742S78.64,19.253,78.64,16.333Zm6.877,0c0-2-.919-3.177-2.466-3.177s-2.466,1.187-2.466,3.177c0,2.006.919,3.175,2.466,3.175S85.518,18.339,85.518,16.333Z" transform="translate(-25.656 -8.036)" fill="#5f6368"/>
      <path id="p-7" data-name="p" d="M87.291,11.7h1.821v1.575h.045A2.215,2.215,0,0,1,91.392,11.6a2.881,2.881,0,0,1,.655.071v1.777a2.685,2.685,0,0,0-.858-.114,1.927,1.927,0,0,0-1.486.609,1.907,1.907,0,0,0-.5,1.52v5.491h-1.91Z" transform="translate(-23.954 -8.034)" fill="#5f6368"/>
      <path id="p-8" data-name="p" d="M99.98,18.242a3.73,3.73,0,0,1-4.005,2.833c-2.7,0-4.384-1.8-4.384-4.7s1.688-4.787,4.306-4.787c2.572,0,4.189,1.759,4.189,4.567v.651H93.518v.114a2.415,2.415,0,0,0,2.5,2.622,2.105,2.105,0,0,0,2.148-1.3Zm-6.454-2.763h4.651A2.232,2.232,0,0,0,95.9,13.129a2.35,2.35,0,0,0-2.37,2.349Z" transform="translate(-23.085 -8.036)" fill="#5f6368"/>
    </g>
  </g>
</svg>
